<?xml version="1.0" encoding="utf-8"?>
<!-- Generator: Adobe Illustrator 22.0.1, SVG Export Plug-In . SVG Version: 6.00 Build 0)  -->
<svg version="1.1" id="图层_1" xmlns="http://www.w3.org/2000/svg" xmlns:xlink="http://www.w3.org/1999/xlink" x="0px" y="0px"
	 viewBox="0 0 910 146" style="enable-background:new 0 0 910 146;" xml:space="preserve">
<style type="text/css">
	.st0{fill:url(#SVGID_1_);}
	.st1{fill:url(#SVGID_2_);}
	.st2{fill:url(#SVGID_3_);}
	.st3{fill:url(#SVGID_4_);}
	.st4{fill:#06018D;}
	.st5{fill:url(#SVGID_5_);}
	.st6{fill:#2B2532;}
	.st7{fill:url(#SVGID_6_);}
	.st8{fill:url(#SVGID_7_);}
</style>
<g>
	
		<linearGradient id="SVGID_1_" gradientUnits="userSpaceOnUse" x1="12.05" y1="1319.35" x2="12.05" y2="1309.45" gradientTransform="matrix(1 0 0 1 0 -1240)">
		<stop  offset="0" style="stop-color:#F8630B"/>
		<stop  offset="1" style="stop-color:#F9D010"/>
	</linearGradient>
	<path class="st0" d="M18.7,74.4c0-1.6,0.1-3.3,0.3-4.9c0-0.1-13.9-0.1-13.9-0.1v9.9H19C18.8,77.7,18.7,76,18.7,74.4z"/>
	
		<linearGradient id="SVGID_2_" gradientUnits="userSpaceOnUse" x1="60.6" y1="1272.75" x2="60.6" y2="1258.85" gradientTransform="matrix(1 0 0 1 0 -1240)">
		<stop  offset="0" style="stop-color:#F8630B"/>
		<stop  offset="1" style="stop-color:#F9D010"/>
	</linearGradient>
	<path class="st1" d="M55.7,18.8v13.9c1.6-0.2,3.3-0.3,4.9-0.3s3.3,0.1,4.9,0.3V18.8H55.7z"/>
	
		<linearGradient id="SVGID_3_" gradientUnits="userSpaceOnUse" x1="26.2" y1="1288.45" x2="26.2" y2="1271.65" gradientTransform="matrix(1 0 0 1 0 -1240)">
		<stop  offset="0" style="stop-color:#F8630B"/>
		<stop  offset="1" style="stop-color:#F9D010"/>
	</linearGradient>
	<path class="st2" d="M17.8,38.6l9.8,9.8c2-2.6,4.4-4.9,7-7l-9.8-9.8L17.8,38.6z"/>
	
		<linearGradient id="SVGID_4_" gradientUnits="userSpaceOnUse" x1="26.2" y1="1357.15" x2="26.2" y2="1340.35" gradientTransform="matrix(1 0 0 1 0 -1240)">
		<stop  offset="0" style="stop-color:#F8630B"/>
		<stop  offset="1" style="stop-color:#F9D010"/>
	</linearGradient>
	<path class="st3" d="M27.6,100.3l-9.8,9.8l7,7l9.8-9.8C32,105.2,29.6,102.9,27.6,100.3z"/>
</g>
<path class="st4" d="M60.9,68.8c0-0.6,0.2-1.2,0.5-1.7c-0.3,0-0.5-0.1-0.8-0.1c-3.3,0-6,2.7-6,6s2.7,6,6,6c3.3,0,6-2.7,6-6
	c0-0.5-0.1-1-0.2-1.4c-0.6,0.4-1.3,0.7-2,0.7C62.4,72.3,60.9,70.8,60.9,68.8z"/>
<g>
	<g>
		<path d="M111.7,55.8h37v3.7h-7.5V73h10.4v3.7h-10.4v21.4h-3.9V76.7h-13.9c-1.3,10-5.4,17.3-12.3,21.8l-2.9-2.9
			c6.4-4.1,10.2-10.4,11.4-18.9h-11.8V73H120c0.1-1.4,0.2-2.9,0.2-4.4v-9.1h-8.5V55.8z M124.1,59.5v9.4c0,1.4-0.1,2.8-0.2,4h13.5
			V59.5H124.1z"/>
		<path d="M111.1,99l-3.5-3.5l0.4-0.3c6.2-3.9,9.9-10,11.1-18.1h-11.7v-4.5h12.2c0.1-1.3,0.2-2.6,0.2-4V60h-8.5v-4.5h37.9V60h-7.5
			v12.6h10.4v4.5h-10.4v21.4H137V77.1h-13.1c-1.4,9.9-5.5,17.2-12.5,21.7L111.1,99z M108.9,95.6l2.3,2.3
			c6.6-4.4,10.6-11.6,11.9-21.3v-0.4h14.7v21.4h3V76.2h10.4v-2.8h-10.4V59.1h7.5v-2.8h-36.2v2.8h8.5v9.5c0,1.5-0.1,3.1-0.2,4.5v0.4
			h-12.1v2.8h11.8l-0.1,0.5C118.9,85.1,115.2,91.4,108.9,95.6z M137.8,73.4h-14.4v-0.5c0.1-1.3,0.2-2.6,0.2-4V59h14.2V73.4z
			 M124.4,72.6H137V59.9h-12.5v9C124.5,70.2,124.5,71.4,124.4,72.6z"/>
	</g>
	<g>
		<path d="M159,66c2.4,1.5,4.7,3.3,6.7,5.4l-2.7,3.1c-2.1-2.3-4.2-4.3-6.6-6L159,66z M162.8,79l3.1,2.1c-1.4,5.9-3.5,11.6-6.2,17.2
			l-3.3-2.5C159.2,90.5,161.3,84.9,162.8,79z M160.5,54.5c2.3,1.8,4.4,3.7,6.2,5.6l-2.9,2.9c-1.8-2.3-3.9-4.4-6.2-6.4L160.5,54.5z
			 M200.8,54.7v3.5h-11.6l-1.9,4.8h11.2v18.1h-8.7v12c0,1.9-0.3,3.3-1,4s-1.9,1.2-3.7,1.2c-1.4,0-2.8-0.1-4.2-0.4l-0.8-3.9
			c1.5,0.3,3.1,0.4,4.6,0.4c0.5,0,0.9-0.1,1.1-0.4c0.2-0.3,0.3-0.9,0.3-1.9v-11h-9.4V63h6.6l1.9-4.8h-11.8v17.7
			c0,7.7-2.1,15.1-6.2,22.2l-3.3-2.5c3.7-5.8,5.6-12.3,5.6-19.7V54.7H200.8z M180.2,83.4l3.3,1c-2.1,4.6-4.8,8.3-8.1,11l-2.9-2.3
			C176.1,90,178.7,86.7,180.2,83.4z M180.4,70.3h14.5v-3.9h-14.5V70.3z M180.4,77.6h14.5v-4h-14.5V77.6z M195,83.6
			c2.8,3,5.1,6,6.9,9.3l-3.5,2.1c-1.7-3.2-3.9-6.3-6.7-9.3L195,83.6z"/>
		<path d="M159.9,98.9l-4-3l0.2-0.3c2.7-5.2,4.8-10.8,6.3-16.7l0.2-0.6l3.8,2.6l-0.1,0.3c-1.4,5.9-3.5,11.7-6.2,17.2L159.9,98.9z
			 M157,95.6l2.6,2c2.5-5.2,4.5-10.7,5.8-16.3l-2.3-1.6C161.6,85.2,159.6,90.6,157,95.6z M167.4,98.7l-4-3l0.2-0.3
			c3.7-5.7,5.5-12.2,5.5-19.4V54.2h32.1v4.3h-11.7l-1.6,4h11v19h-8.7V93c0,2-0.3,3.5-1.1,4.3c-0.7,0.9-2,1.3-4,1.3
			c-1.4,0-2.9-0.1-4.3-0.4l-0.3-0.1l-0.9-4.7l0.6,0.1c1.5,0.3,3,0.4,4.6,0.4c0.3,0,0.6,0,0.7-0.2c0,0,0.2-0.3,0.2-1.7V81.5h-9.4v-19
			h6.7l1.6-4h-10.7v17.3c0,7.8-2.1,15.3-6.2,22.4L167.4,98.7z M181.3,97.5c1.3,0.2,2.6,0.3,3.9,0.3c1.7,0,2.8-0.3,3.3-1
			c0.6-0.7,0.9-2,0.9-3.8V80.7h8.7V63.4h-11.4l2.3-5.7h11.4v-2.6H170v20.8c0,7.2-1.8,13.8-5.4,19.6l2.6,2c3.9-6.8,5.9-14.1,5.9-21.5
			V57.7h12.8l-2.3,5.7h-6.4v17.3h9.4v11.4c0,1.5-0.2,2-0.4,2.2c-0.3,0.4-0.7,0.6-1.4,0.6c-1.4,0-2.7-0.1-4.1-0.3L181.3,97.5z
			 M175.4,95.9l-3.6-2.8l0.4-0.3c3.5-3,6.1-6.2,7.6-9.5L180,83l4.1,1.2l-0.2,0.4c-2.1,4.7-4.8,8.4-8.2,11.1L175.4,95.9z M173.1,93
			l2.2,1.8c3-2.5,5.6-6,7.5-10.2l-2.5-0.7C178.9,87.1,176.5,90.1,173.1,93z M198.3,95.6l-0.2-0.4c-1.6-3.2-3.9-6.2-6.7-9.2l-0.4-0.4
			l4-2.6l0.2,0.3c2.8,3,5.2,6.1,7,9.3l0.2,0.4L198.3,95.6z M192.4,85.8c2.6,2.7,4.7,5.6,6.3,8.6l2.7-1.7c-1.7-3-3.9-5.8-6.4-8.6
			L192.4,85.8z M195.3,78H180v-4.9h15.3V78z M180.8,77.2h13.6V74h-13.6V77.2z M163,75.2l-0.3-0.4c-2-2.3-4.2-4.3-6.5-5.9l-0.4-0.3
			l3.1-3.1l0.3,0.2c2.5,1.6,4.8,3.4,6.8,5.5l0.3,0.3L163,75.2z M157.1,68.5c2.1,1.5,4,3.3,5.9,5.4l2.1-2.4c-1.9-1.8-3.9-3.5-6.1-4.9
			L157.1,68.5z M195.3,70.7H180V66h15.3V70.7z M180.8,69.9h13.6v-3h-13.6V69.9z M163.8,63.6l-0.3-0.4c-1.8-2.3-3.8-4.4-6.1-6.3
			l-0.4-0.3l3.6-2.6l0.3,0.2c2.3,1.8,4.4,3.7,6.2,5.6l0.3,0.3L163.8,63.6z M158.3,56.6c2,1.7,3.9,3.7,5.5,5.7l2.3-2.3
			c-1.6-1.7-3.5-3.4-5.6-5L158.3,56.6z"/>
	</g>
	<g>
		<path d="M206.2,59.9h6.2c0.6-1.9,1.2-4,1.7-6.2l3.5,0.8c-0.4,1.9-0.8,3.7-1.3,5.4h7.7v3.7h-8.9c-1.3,4.2-2.8,7.9-4.6,11h5.4v-6.2
			h3.5v6.2h4.8v3.3h-4.8v6l4.4-1.2l0.6,3.5c-1.5,0.5-3.2,1-5,1.3v10.6h-3.5v-9.8l-8.9,1.5l-0.8-3.9c3.5-0.5,6.7-1,9.6-1.5v-6.6H207
			l-0.8-3.3c1.9-3.2,3.6-6.9,5-11h-5V59.9z M231.5,53.3l3.7,1c-0.5,2.2-1.2,4.4-1.9,6.6h15.6v3.5c0,0.1-0.4,1.2-1.3,3.2
			c-0.8,2-1.7,3.9-2.6,5.7l-3.3-1.7c1.2-2.3,2.1-4.6,2.9-6.9h-12.7c-1.4,3.6-3.3,7-5.8,10.2l-2.9-3.1
			C226.8,66.6,229.6,60.5,231.5,53.3z M235,67.6l3.7,0.4l-0.2,6.6c0,1.4,1,4.4,2.9,8.9s5.1,8.4,9.6,11.6l-3.3,3.1
			c-4.9-4-8.4-9.4-10.4-16.2c-1.5,6.4-5.2,11.8-11,16.2l-2.9-3.1c4.1-3.1,7-6.5,8.8-10.3S234.8,75.2,235,67.6z"/>
		<path d="M226.2,98.6l-3.5-3.7l0.4-0.3c4-3,6.9-6.4,8.6-10.2c1.7-3.7,2.6-9.4,2.8-16.9V67l4.5,0.5l-0.2,7c0,1.3,1,4.3,2.9,8.7
			c1.9,4.4,5.1,8.2,9.5,11.4l0.4,0.3l-3.9,3.7l-0.3-0.2c-4.6-3.7-8-8.8-10.1-15c-1.7,5.9-5.4,10.9-10.8,15L226.2,98.6z M237.2,80.2
			l0.5,1.5c2,6.6,5.3,11.9,10,15.8l2.6-2.5c-4.3-3.2-7.5-7-9.4-11.4c-2-4.6-2.9-7.5-2.9-9l0.2-6.2l-2.8-0.3
			c-0.2,7.4-1.1,13-2.8,16.8C230.8,88.6,228,92,224,95l2.3,2.5c5.5-4.2,9-9.5,10.5-15.7L237.2,80.2z M219.8,98.5h-4.3v-9.8l-8.8,1.5
			l-0.9-4.7l0.4-0.1c3.3-0.5,6.4-1,9.3-1.5v-5.8h-8.8l-0.9-3.8l0.1-0.1c1.8-3,3.4-6.5,4.8-10.3h-4.8v-4.5h6.3
			c0.6-1.8,1.1-3.8,1.6-5.8l0.1-0.4l4.3,1l-0.1,0.4c-0.3,1.7-0.7,3.4-1.2,4.9h7.6V64h-9c-1.2,3.8-2.6,7.2-4.2,10.1h4.2v-6.2h4.3v6.2
			h4.8v4.1h-4.8v5l4.4-1.1l0.7,4.3l-0.3,0.1c-1.5,0.5-3,0.9-4.7,1.3v10.7H219.8z M216.3,97.6h2.6V87.1l0.3-0.1
			c1.6-0.4,3.2-0.8,4.6-1.2l-0.4-2.7l-4.5,1.2v-7h4.8V75h-4.8v-6.2h-2.6V75h-6.6l0.4-0.6c1.8-3,3.3-6.7,4.6-10.9l0.1-0.3h8.8v-2.8
			h-7.9l0.2-0.6c0.5-1.5,0.9-3.2,1.3-4.9l-2.7-0.6c-0.5,2-1,4-1.6,5.8l-0.1,0.3h-6.1v2.8h5.2l-0.2,0.6c-1.4,4.1-3.1,7.7-5,10.9
			l0.7,2.8h9v7.3l-0.4,0.1c-2.8,0.5-5.9,1-9.2,1.5l0.6,3l9-1.6v9.8C216.4,97.6,216.3,97.6,216.3,97.6z M226.1,75.4l-3.5-3.7l0.2-0.3
			c3.6-4.9,6.3-11.1,8.2-18.2l0.1-0.4l4.5,1.2l-0.1,0.4c-0.5,2-1.1,4-1.7,6h15.4v3.9c0,0.1,0,0.3-1.3,3.3c-0.8,2-1.7,3.9-2.6,5.7
			l-0.2,0.4l-4-2.1l0.2-0.4c1-2.1,1.9-4.2,2.7-6.3h-11.8c-1.4,3.5-3.3,6.9-5.7,10.1L226.1,75.4z M223.7,71.6l2.3,2.5
			c2.3-3.1,4.1-6.3,5.4-9.7l0.1-0.3h13.6l-0.2,0.6c-0.7,2.2-1.7,4.4-2.7,6.6l2.5,1.3c0.8-1.7,1.6-3.4,2.4-5.3c1-2.5,1.2-3,1.2-3.1
			v-3h-15.8l0.2-0.6c0.7-2,1.3-4.1,1.8-6.1l-2.9-0.8C229.9,60.7,227.2,66.7,223.7,71.6z"/>
	</g>
	<g>
		<path d="M264.7,53.7l3.9,1.2c-1.2,3.6-2.5,7.1-4,10.6v32.6h-3.9V72.8c-1.2,1.8-2.4,3.5-3.7,5l-2-3.8
			C259.4,67.5,262.6,60.8,264.7,53.7z M274.9,55.4l3.7,1.2c-0.6,2.2-1.4,4.3-2.3,6.4h6.7v-9.3h3.9V63h11.6v3.7h-11.6V78h13.3v3.7
			h-13.3v16.4H283V81.7h-15.2V78H283V66.6h-8.3c-1.4,3.1-3,5.8-4.8,8.1l-3.3-2.5C270.3,67.3,273.1,61.7,274.9,55.4z"/>
		<path d="M287.3,98.5h-4.7V82.1h-15.2v-4.5h15.2V67H275c-1.4,3-3,5.7-4.8,7.9l-0.3,0.3l-4-3l0.3-0.3c3.7-4.8,6.4-10.4,8.2-16.6
			l0.1-0.4l4.5,1.4l-0.1,0.4c-0.6,2-1.3,3.9-2.1,5.8h5.7v-9.3h4.7v9.3h11.6V67h-11.6v10.5h13.3V82h-13.3L287.3,98.5L287.3,98.5z
			 M283.4,97.6h3V81.2h13.3v-2.8h-13.3V66.2H298v-2.8h-11.6v-9.3h-3v9.3h-7.8l0.3-0.6c0.8-1.9,1.6-3.9,2.2-5.9l-2.8-0.9
			c-1.8,6-4.5,11.4-8,16.2l2.6,2c1.7-2.2,3.2-4.8,4.5-7.7l0.1-0.2h9v12.2h-15.2v2.8h15.2v16.3C283.5,97.6,283.4,97.6,283.4,97.6z
			 M264.9,98.5h-4.7V74.2c-0.9,1.4-1.9,2.7-2.9,3.9l-0.4,0.5l-2.3-4.7l0.1-0.2c4.3-6.4,7.5-13.1,9.6-20.1l0.1-0.4l4.7,1.4L269,55
			c-1.1,3.6-2.5,7.1-4,10.6v32.9H264.9z M261,97.6h3V65.4v-0.1c1.5-3.3,2.8-6.7,3.9-10.1l-3-0.9c-2,6.9-5.2,13.5-9.4,19.7l1.5,3
			c1.1-1.4,2.2-2.9,3.2-4.5l0.8-1.2V97.6z"/>
	</g>
	<g>
		<path d="M314,53.7l3.9,1.2c-1.2,3.6-2.5,7.1-4,10.6v32.6H310V72.8c-1.2,1.8-2.4,3.5-3.7,5l-1.9-3.9C308.7,67.5,312,60.8,314,53.7z
			 M325.2,84.4l3.7,1.7c-3.1,5.3-6.4,9.3-10,12.1l-3.3-2.9C319.5,92.1,322.8,88.5,325.2,84.4z M317.7,63h6.6v-8.9h3.9V63h8.3v-8.9
			h3.9V63h7.5v3.7h-7.5v12.5h8.3v3.7h-31.8v-3.7h7.5V66.6h-6.6L317.7,63L317.7,63z M328.1,79.2h8.3V66.6h-8.3V79.2z M338.7,84.4
			c3.2,3.1,6.4,6.7,9.4,11l-3.7,2.9c-2.6-4-5.6-7.9-9.1-11.8L338.7,84.4z"/>
		<path d="M344.4,98.9l-0.3-0.4c-2.5-3.9-5.6-7.9-9-11.7l-0.3-0.4l4-2.6L339,84c3.2,3.1,6.4,6.8,9.5,11l0.2,0.3L344.4,98.9z
			 M336.1,86.6c3.2,3.6,6.1,7.3,8.5,11.1l3-2.3c-2.9-4-5.9-7.4-8.9-10.4L336.1,86.6z M318.8,98.8l-3.9-3.5l0.4-0.3
			c3.9-3.2,7.1-6.8,9.5-10.9l0.2-0.3l4.4,2.1l-0.2,0.4c-3.1,5.3-6.5,9.4-10.1,12.3L318.8,98.8z M316.2,95.4l2.6,2.3
			c3.3-2.7,6.5-6.5,9.4-11.4l-2.9-1.4C323,88.8,319.9,92.3,316.2,95.4z M314.2,98.5h-4.7V74.2c-0.9,1.4-1.9,2.7-2.9,3.9l-0.4,0.5
			l-2.3-4.7l0.1-0.2c4.3-6.4,7.5-13.1,9.6-20.1l0.1-0.4l4.7,1.4l-0.1,0.4c-1.1,3.6-2.5,7.1-4,10.6v32.9
			C314.3,98.5,314.2,98.5,314.2,98.5z M310.4,97.6h3V65.4v-0.1c1.5-3.3,2.8-6.7,3.9-10.1l-3-0.9c-2,6.9-5.2,13.5-9.4,19.7l1.5,3
			c1.1-1.4,2.2-2.9,3.2-4.5l0.8-1.2V97.6z M349,83.2h-32.7v-4.5h7.5V67h-6.6v-4.5h6.6v-8.9h4.7v8.9h7.4v-8.9h4.7v8.9h7.5V67h-7.5
			v11.7h8.3v4.5H349z M317.1,82.4h31v-2.8h-8.3V66.2h7.5v-2.8h-7.5v-8.9h-3v8.9h-9.1v-8.9h-3v8.9h-6.6v2.8h6.6v13.4h-7.5v2.8
			C317.2,82.4,317.1,82.4,317.1,82.4z M336.8,79.6h-9.1V66.2h9.1V79.6z M328.5,78.7h7.4V67h-7.4V78.7z"/>
	</g>
	<g>
		<path d="M397.5,59.3V63h-35.1v14.3c0,8.1-1.7,15.1-5.2,21l-3.7-2.1c1.8-3.7,3.1-7,3.9-9.9s1.2-6.3,1.2-10.3V59.3h18.3
			c-0.5-1.5-1.2-3-2.1-4.4l3.9-1.3c1.2,1.8,2,3.7,2.5,5.8L397.5,59.3L397.5,59.3z M364,92.3h20c3.1-7.3,5.7-15.4,7.9-24.3l4,1.3
			c-2.1,8.5-4.6,16.1-7.5,22.9h10.2v3.7H364V92.3z M369.7,70.9c2.6,4.8,4.5,10.1,5.8,16l-3.9,1.4c-1.3-5.9-3.2-11.3-5.8-16.2
			L369.7,70.9z M379.6,67.2c2.3,5.3,3.9,10.5,4.6,15.8l-4.2,1.2c-0.6-5.8-2.1-11.1-4.2-16L379.6,67.2z"/>
		<path d="M357.4,98.8l-4.4-2.5l0.2-0.4c1.8-3.7,3.1-7,3.8-9.9c0.8-2.8,1.1-6.3,1.1-10.2v-17h18.1c-0.5-1.3-1.1-2.6-1.9-3.8
			l-0.3-0.5l4.7-1.6l0.2,0.3c1.1,1.7,1.9,3.6,2.5,5.6h16.5v4.5h-35.1v13.8c0,8.1-1.8,15.3-5.3,21.2L357.4,98.8z M354.1,96l3,1.7
			c3.3-5.7,4.9-12.6,4.9-20.4V62.5h35.1v-2.8h-16.3l-0.1-0.3c-0.5-1.9-1.2-3.7-2.3-5.4l-3,1.1c0.8,1.3,1.4,2.7,1.9,4.1l0.2,0.6H359
			V76c0,4-0.4,7.5-1.2,10.4C357.1,89.1,355.8,92.4,354.1,96z M399.1,96.4h-35.6v-4.5h20.2c3-7.2,5.6-15.3,7.8-24l0.1-0.4l4.9,1.6
			l-0.1,0.4c-2,8.2-4.4,15.8-7.3,22.4h10V96.4z M364.4,95.5h33.9v-2.8h-10.4l0.3-0.6c2.9-6.7,5.4-14.2,7.4-22.5l-3.2-1.1
			c-2.2,8.7-4.8,16.7-7.8,23.9l-0.1,0.3h-19.9v2.8C364.6,95.5,364.4,95.5,364.4,95.5z M371.4,88.8l-0.1-0.5
			c-1.3-5.8-3.2-11.3-5.7-16.1l-0.2-0.5l4.7-1.4l0.2,0.3c2.6,4.8,4.5,10.2,5.8,16.1l0.1,0.4L371.4,88.8z M366.5,72.3
			c2.4,4.6,4.2,9.8,5.5,15.4l3-1.1c-1.2-5.6-3.1-10.7-5.5-15.2L366.5,72.3z M379.6,84.7l-0.1-0.5c-0.6-5.7-2.1-11.1-4.2-15.9
			l-0.2-0.5l4.7-1.2L380,67c2.3,5.3,3.9,10.6,4.7,15.9l0.1,0.4L379.6,84.7z M376.3,68.5c2,4.6,3.4,9.7,4,15.2l3.4-0.9
			c-0.8-5-2.2-10-4.4-15L376.3,68.5z"/>
	</g>
	<g>
		<path d="M408.3,53.7l3.5,1.2c-0.4,1.7-0.8,3.3-1.3,4.8h7.3v3.5h-8.7c-0.9,2.3-2.1,4.4-3.7,6.4l-2.3-2.5
			C405.3,63.5,407,59.1,408.3,53.7z M409.7,70.9h-2.3v-3.3h9.6v3.3h-3.7v7.3h4.4v3.5h-4.4v10.4c1.4-0.8,2.7-1.5,3.9-2.3l0.6,3.5
			c-1.8,1.4-3.9,2.6-6.4,3.7l-1.7-1.7V81.7h-5.2v-3.5h5.2V70.9z M419.1,70.7h6.6v19.7c1.2,1.3,2.6,2.2,4.2,2.7
			c1.7,0.5,5.1,0.8,10.4,0.8h7.5l-1.5,3.9h-9.4c-3.6,0-6.3-0.4-8-1.2c-1.7-0.8-3.2-2.1-4.3-3.9l-4.6,5c-0.8-1.3-1.6-2.5-2.5-3.7
			l5-3.1V74.1h-3.3v-3.4H419.1z M422.8,55.8c1,2.3,1.9,4.8,2.5,7.5l-3.5,1.2c-0.6-2.8-1.5-5.3-2.7-7.5L422.8,55.8z M436.3,53.5
			l3.5,0.8c-0.4,1.8-0.8,3.5-1.3,5.2h9.3v3.3h-10.2c-1,3.7-2.2,6.9-3.7,9.6h4v-6.7h3.5v6.7h5.8v3.1h-5.8v6h6.7v3.3h-6.7v7.5h-3.5
			v-7.5h-8.1v-3.3h8.1v-6h-7.3l-0.8-3.3c1.5-2.7,2.9-5.8,4-9.4h-3.7v-3.3h4.6L436.3,53.5z"/>
		<path d="M419.8,98.4l-0.3-0.5c-0.8-1.3-1.6-2.5-2.5-3.6c-1.6,1.1-3.4,2.1-5.5,3l-0.3,0.1l-2.1-2.1V82.1H404v-4.3h5.2v-6.5h-2.3
			v-3.1c-0.4,0.5-0.8,1.1-1.2,1.6l-0.3,0.4l-2.9-3.1l0.2-0.3c2.1-3.4,3.9-7.8,5.2-13.2l0.1-0.5l4.3,1.4l-0.1,0.4
			c-0.3,1.5-0.7,2.9-1.2,4.3h7.2v4.3h-8.8c-0.5,1.2-1.1,2.4-1.8,3.6h9.8v4.1h-3.7v6.5h4.4V82h-4.4v9.3c1.2-0.6,2.2-1.3,3.2-1.9
			l0.5-0.4l0.7,4l3.8-2.3V74.6h-3.3v-4.3h7.4v19.9c1.1,1.2,2.4,2,3.9,2.5c1.6,0.5,5.1,0.8,10.3,0.8h8.1l-1.9,4.7h-9.7
			c-3.6,0-6.4-0.4-8.2-1.2c-1.7-0.7-3.1-1.9-4.2-3.6L419.8,98.4z M424.6,92l0.3,0.5c1.1,1.7,2.5,3,4.2,3.7s4.3,1.1,7.8,1.1h9.2
			l1.2-3h-6.9c-5.4,0-8.8-0.3-10.5-0.8s-3.2-1.5-4.4-2.8l-0.1-0.1V71.1h-5.7v2.6h3.3v17.4l-4.8,3c0.7,0.9,1.3,1.9,2,2.8L424.6,92z
			 M410.1,95l1.4,1.4c2.2-0.9,4.2-2.1,5.8-3.3l-0.4-2.6c-1,0.7-2.1,1.3-3.3,2l-0.6,0.3V81.2h4.4v-2.6H413v-8.2h3.7V68h-8.8v2.4h2.3
			v8.2H405v2.6h5.2V95H410.1z M403.6,67l1.8,1.9c1.4-1.8,2.5-3.8,3.3-5.9l0.1-0.3h8.5v-2.6h-7.5l0.2-0.6c0.5-1.4,0.9-2.9,1.3-4.4
			l-2.7-0.9C407.4,59.3,405.7,63.6,403.6,67z M441.7,92.7h-4.3v-7.5h-8.1V81h8.1v-5.1h-7.2l-0.9-3.8l0.1-0.1
			c1.4-2.5,2.7-5.5,3.8-8.8h-3.5v-4.1h4.7L436,53l4.3,1l-0.1,0.4c-0.3,1.6-0.7,3.2-1.2,4.7h9.1v4.1h-10.3c-0.9,3.3-2,6.3-3.3,8.8
			h2.9v-6.7h4.3V72h5.8v3.9h-5.8V81h6.7v4.1h-6.7L441.7,92.7L441.7,92.7z M438.2,91.8h2.6v-7.5h6.7v-2.4h-6.7v-6.8h5.8v-2.2h-5.8
			v-6.7h-2.6v6.7H433l0.3-0.6c1.4-2.7,2.6-5.9,3.6-9.6l0.1-0.3h10.1V60h-9.4l0.2-0.6c0.5-1.5,0.9-3.1,1.3-4.8l-2.7-0.6l-1.5,5.9
			h-4.5v2.4h3.8l-0.2,0.6c-1.1,3.5-2.5,6.7-4,9.4l0.7,2.8h7.4v6.8h-8.1v2.4h8.1L438.2,91.8L438.2,91.8z M421.5,65.1l-0.1-0.5
			c-0.6-2.8-1.5-5.3-2.7-7.4l-0.2-0.5l4.5-1.4l0.2,0.3c1,2.3,1.9,4.9,2.5,7.6l0.1,0.4L421.5,65.1z M419.7,57.2c1,2,1.8,4.2,2.4,6.7
			l2.7-0.9c-0.6-2.4-1.3-4.6-2.2-6.7L419.7,57.2z"/>
	</g>
	<g>
		<path d="M458.8,86.3l3.5,1.9c-1.9,4.1-3.9,7.3-5.8,9.6l-3.3-2.9C455.5,92.3,457.4,89.4,458.8,86.3z M472.3,53.7h3.9v5.2h18.9v3.7
			h-18.9V69h16v15.4H458V68.9h14.3V53.7z M461.9,80.7h26.4v-8.1h-26.4V80.7z M469.6,87.4c1.8,3,3,5.9,3.7,8.9l-4.2,1.3
			c-0.6-3.3-1.8-6.4-3.5-9.3L469.6,87.4z M480.4,86.9c1.8,2.6,3.3,5.4,4.6,8.5l-4,1.7c-1.2-3.2-2.6-6.1-4.2-8.7L480.4,86.9z
			 M491.4,85.7c2.3,3.1,4.2,6.4,5.8,10l-3.7,2.1c-1.3-3.6-3.1-6.9-5.6-10L491.4,85.7z"/>
		<path d="M493.3,98.5l-0.2-0.5c-1.3-3.5-3.1-6.9-5.5-9.9l-0.3-0.4l4.2-2.6l0.2,0.3c2.3,3.1,4.3,6.5,5.8,10.1l0.1,0.3L493.3,98.5z
			 M488.6,87.9c2.2,2.9,4,6,5.2,9.3l2.9-1.7c-1.4-3.3-3.2-6.4-5.4-9.3L488.6,87.9z M456.6,98.5l-3.9-3.5l0.3-0.3
			c2.3-2.7,4.1-5.5,5.5-8.6l0.2-0.4l4.2,2.3l-0.2,0.4c-1.9,4.1-3.9,7.4-5.8,9.7L456.6,98.5z M453.8,94.9l2.6,2.3
			c1.8-2.2,3.5-5.2,5.3-8.9l-2.7-1.5C457.7,89.7,455.9,92.4,453.8,94.9z M468.7,98.2l-0.1-0.5c-0.6-3.3-1.8-6.3-3.4-9.1l-0.3-0.5
			l4.9-1.2l0.2,0.3c1.8,3,3.1,6,3.7,9l0.1,0.4L468.7,98.2z M466.2,88.7c1.5,2.6,2.5,5.4,3.1,8.4l3.4-1.1c-0.6-2.7-1.8-5.4-3.4-8.1
			L466.2,88.7z M480.7,97.7l-0.2-0.4c-1.1-3.2-2.6-6.1-4.2-8.6l-0.3-0.4l4.4-1.9l0.2,0.3c1.8,2.6,3.4,5.5,4.7,8.6l0.2,0.4
			L480.7,97.7z M477.4,88.6c1.5,2.4,2.8,5,3.9,7.9l3.2-1.4c-1.2-2.8-2.6-5.4-4.2-7.7L477.4,88.6z M492.6,84.8h-35V68.5h14.3V53.3
			h4.7v5.2h18.9V63h-18.9v5.5h16V84.8z M458.5,83.9h33.3V69.4h-16v-7.2h18.9v-2.8h-18.9v-5.2h-3v15.2h-14.3V83.9z M488.7,81.1h-27.3
			v-8.9h27.3V81.1z M462.3,80.3h25.6V73h-25.6V80.3z"/>
	</g>
	<g>
		<path d="M525.3,53.5c1,1.2,1.8,2.4,2.3,3.7h18.9v3.3h-44v-3.3H523c-0.4-0.9-0.9-1.7-1.5-2.5L525.3,53.5z M533.6,81.1v10.6
			c0,0.6,0.2,1.1,0.6,1.3s1.3,0.4,2.7,0.4c2.6,0,4.1-0.3,4.7-0.8s1-1.9,1.3-4l3.7,1.4c-0.1,2.8-0.8,4.7-1.9,5.7
			c-1.2,1-3.8,1.4-7.9,1.4c-3.1,0-5-0.3-5.7-0.9s-1.1-1.8-1.1-3.6v-8.1h-11.2V86c0,3.6-1,6.3-2.9,8s-5.6,3.1-11,4l-2.3-3.7
			c5.3-0.8,8.6-1.8,10.1-3.1c1.5-1.3,2.2-3.3,2.2-6.2v-4L533.6,81.1L533.6,81.1z M544.2,74.5v9.3h-3.5V78h-32.2v6.2h-3.7v-9.6
			L544.2,74.5L544.2,74.5z M509.9,62.8h29.5V72h-29.5L509.9,62.8L509.9,62.8z M513.4,68.7h22.4V66h-22.4V68.7z"/>
		<path d="M504.7,98.5l-2.8-4.5l0.6-0.1c5.2-0.8,8.5-1.8,9.9-3s2.1-3.2,2.1-5.8v-4.5h19.6v11c0,0.5,0.1,0.8,0.4,1
			c0.2,0.1,0.7,0.3,2.5,0.3c3.2,0,4.2-0.4,4.4-0.7c0.3-0.3,0.8-1.2,1.1-3.8l0.1-0.5l4.5,1.6v0.3c-0.1,3-0.8,4.9-2.1,6
			c-1.2,1-3.9,1.5-8.2,1.5c-3.3,0-5.2-0.3-6-1s-1.2-1.9-1.2-3.9V85h-10.3v1.1c0,3.7-1,6.5-3,8.3s-5.7,3.1-11.2,4.1H504.7z
			 M503.3,94.7l1.8,2.9c5.1-0.9,8.7-2.2,10.5-3.8c1.8-1.6,2.8-4.2,2.8-7.7v-2h12v8.5c0,1.7,0.3,2.7,0.9,3.2c0.4,0.4,1.7,0.8,5.4,0.8
			c4,0,6.6-0.5,7.6-1.3s1.6-2.6,1.8-5.1l-2.9-1.1c-0.3,2-0.7,3.2-1.3,3.8c-0.7,0.6-2.3,0.9-5,0.9c-2,0-2.6-0.3-2.9-0.5
			c-0.5-0.3-0.8-0.9-0.8-1.7V81.5h-17.9v3.6c0,2.9-0.8,5.1-2.4,6.5C511.5,92.9,508.3,93.9,503.3,94.7z M509,84.6h-4.5V74.1h40.2
			v10.1h-4.3v-5.8H509V84.6z M505.3,83.7h2.8v-6.2h33v5.8h2.6V75h-38.5v8.7H505.3z M539.8,72.4h-30.4V62.3h30.4V72.4z M510.3,71.6
			H539v-8.4h-28.7V71.6z M536.2,69.2H513v-3.5h23.2V69.2z M513.8,68.3h21.5v-1.8h-21.5V68.3z M547,60.9h-44.8v-4.1h20.2
			c-0.3-0.6-0.7-1.2-1.2-1.8l-0.4-0.5l4.7-1.4l0.2,0.2c1,1.1,1.8,2.3,2.3,3.5h19V60.9z M503,60h43.1v-2.4h-18.8l-0.1-0.3
			c-0.5-1.2-1.2-2.3-2.1-3.3l-3,0.9c0.5,0.7,0.9,1.4,1.2,2.1l0.3,0.6H503V60z"/>
	</g>
	<g>
		<path d="M551.8,68h10.4v22.4l4-4.4l2.5,2.3c-1.8,2.4-4.2,4.9-7.3,7.3l-2.9-2.5V71.4h-6.7V68z M559.1,53.7c2.2,2.6,4,5.3,5.4,8.1
			l-3.7,2.1c-1.3-2.8-3-5.5-5.2-8.1L559.1,53.7z M565.1,68.7h13.7v-15h3.9v15h13.5v3.7h-13.5v26h-3.9v-26h-13.7V68.7z"/>
		<path d="M583,98.9h-4.7v-26h-13.7v-4.5h13.7v-15h4.7v15h13.5v4.5H583V98.9z M579.2,98h3V72h13.5v-2.8h-13.5v-15h-3v15h-13.7V72
			h13.7V98z M561.4,96.1l-3.3-2.9V71.9h-6.7v-4.3h11.3v21.7l3.6-3.9l3.1,2.9l-0.2,0.3c-1.8,2.5-4.3,5-7.4,7.4L561.4,96.1z
			 M558.9,92.8l2.5,2.1c2.8-2.2,5.1-4.5,6.7-6.7l-1.9-1.8l-4.5,4.9v-23h-9.6V71h6.7L558.9,92.8L558.9,92.8z M560.6,64.5l-0.2-0.4
			c-1.3-2.8-3-5.5-5.1-8l-0.3-0.4l4.2-2.6l0.2,0.3c2.2,2.6,4,5.3,5.5,8.2L565,62L560.6,64.5z M556.3,55.9c1.9,2.3,3.5,4.8,4.8,7.4
			l2.9-1.7c-1.3-2.6-3-5-4.9-7.4L556.3,55.9z"/>
	</g>
	<g>
		<path d="M626.6,65.3l0.4,3.9l-13.9,2.1c0.6,3.7,1.6,7.5,2.9,11.2c2.2-2.7,4.1-5.8,5.8-9.3l3.3,1.5c-2.3,4.8-4.8,8.7-7.5,11.8
			c2.2,5.3,4.1,7.9,5.8,7.9c0.6,0,1.2-1.9,1.7-5.8l3.3,1.2c-0.5,3.5-1.2,5.7-1.9,6.7c-0.8,1-1.8,1.5-3.1,1.5c-3,0-5.8-3-8.7-8.9
			c-3.2,2.6-6.8,4.8-10.8,6.6l-1.7-3.5c4.5-2.1,8.2-4.4,11-6.9c-1.8-4.9-3-9.4-3.7-13.5l-7.1,1.2l-0.6-3.9l7.1-1.2
			c-0.5-4.2-0.8-8.8-0.8-13.7h4c0,4.8,0.2,9.1,0.6,13.1L626.6,65.3z M619.1,55.6c1.7,1.5,3.3,3.3,4.8,5.4l-2.7,2.1
			c-1.4-1.9-3.1-3.8-5-5.6L619.1,55.6z M631.6,58.9h3.9v28h-3.9V58.9z M640.1,53.9h3.9V93c0,1.9-0.4,3.2-1.1,4
			c-0.7,0.7-1.9,1.1-3.6,1.1c-2.3,0-4.5-0.3-6.6-0.8l-0.8-3.9c2.3,0.6,4.6,1,6.7,1c0.9,0,1.3-0.8,1.3-2.3V53.9H640.1z"/>
		<path d="M639.3,98.5c-2.3,0-4.6-0.3-6.7-0.8l-0.3-0.1l-1-4.8L632,93c2.3,0.6,4.5,0.9,6.6,0.9c0.2,0,0.9,0,0.9-1.9V53.5h4.7V93
			c0,2.1-0.4,3.5-1.2,4.3C642.4,98.1,641.1,98.5,639.3,98.5z M633.1,96.9c1.9,0.5,4,0.7,6.2,0.7c1.5,0,2.6-0.3,3.3-0.9
			c0.6-0.6,0.9-1.8,0.9-3.7V54.3h-3v37.8c0,2.3-1,2.7-1.8,2.7c-2,0-4.1-0.3-6.2-0.8L633.1,96.9z M623.3,98.5c-3.1,0-6-2.8-8.8-8.6
			c-3.1,2.4-6.6,4.6-10.5,6.3l-0.4,0.2l-2.1-4.2l0.4-0.2c4.3-2,7.9-4.2,10.7-6.7c-1.7-4.6-2.9-9-3.5-12.9l-7.1,1.2l-0.7-4.7l7.1-1.2
			c-0.5-4.1-0.7-8.6-0.7-13.3V54h4.9v0.4c0,4.5,0.2,8.8,0.5,12.6l13.9-2.1l0.5,4.7l-13.9,2.1c0.6,3.3,1.4,6.6,2.6,10
			c2-2.5,3.7-5.4,5.2-8.6l0.2-0.4l4,1.9l-0.2,0.4c-2.3,4.7-4.8,8.6-7.4,11.7c2.6,6.1,4.3,7.4,5.3,7.4c0.1,0,0.7-0.6,1.3-5.4l0.1-0.5
			l4.1,1.4l-0.1,0.3c-0.5,3.6-1.2,5.8-2,6.9C625.9,97.9,624.7,98.5,623.3,98.5z M614.8,88.5L615,89c2.7,5.7,5.5,8.6,8.3,8.6
			c1.2,0,2.1-0.4,2.7-1.4c0.7-0.9,1.3-3,1.8-6.2l-2.5-0.9c-0.7,4.7-1.3,5.6-2.1,5.6c-1.9,0-3.9-2.7-6.2-8.2l-0.1-0.2l0.2-0.2
			c2.6-3,5-6.8,7.3-11.3l-2.5-1.2c-1.6,3.3-3.5,6.3-5.7,9l-0.5,0.6l-0.2-0.7c-1.3-3.7-2.3-7.5-2.9-11.3l-0.1-0.4l13.9-2.1l-0.3-3
			l-13.9,2.1v-0.4c-0.4-3.9-0.6-8.1-0.6-12.7h-3.2c0,4.7,0.3,9.1,0.8,13.2v0.4l-7.1,1.2l0.5,3l7.1-1.2l0.1,0.4
			c0.6,4.1,1.9,8.6,3.6,13.4l0.1,0.3l-0.2,0.2c-2.8,2.5-6.4,4.8-10.7,6.8l1.4,2.7c3.8-1.7,7.3-3.9,10.3-6.3L614.8,88.5z M635.9,87.3
			h-4.7V58.5h4.7V87.3z M632,86.4h3V59.3h-3V86.4z M621.1,63.8l-0.3-0.4c-1.4-1.9-3.1-3.8-5-5.5l-0.4-0.4l3.6-2.4l0.2,0.2
			c1.7,1.6,3.3,3.4,4.9,5.5l0.2,0.3L621.1,63.8z M616.8,57.6c1.7,1.6,3.1,3.2,4.4,4.9l2-1.6c-1.4-1.8-2.8-3.4-4.3-4.8L616.8,57.6z"
			/>
	</g>
</g>
<linearGradient id="SVGID_5_" gradientUnits="userSpaceOnUse" x1="695.2" y1="-548.1" x2="901.2034" y2="-548.1" gradientTransform="matrix(1 0 0 -1 0 -472)">
	<stop  offset="5.008013e-04" style="stop-color:#00B5D9"/>
	<stop  offset="1" style="stop-color:#0044FF"/>
</linearGradient>
<path class="st5" d="M737.7,68.4c-2.5,1.6-5.1,3.1-7.8,4.6v-2.9h-12.7v-1.8h17.7V54.1h-34v14.2h11.8v1.8H700V74h12.7v1.7h-17v4.1
	h18.2c-3.9,1.4-4.9,1.6-5.1,1.7h-4.7v1.3c-2.6,0.7-5.4,1.5-8.4,2.2l-0.5,0.1l1.9,4.1l6.9-1.9v11.2h4.7v-1.9H731v1.9h4.7v-17h-13.9
	c1.4-0.5,2.7-1.1,3.9-1.7h14.6v-4.1h-6.2c2.3-1.2,4.4-2.5,6.4-3.9l0.4-0.3l-2.9-3.3L737.7,68.4z M705.4,58H730v1.5h-24.6V58z
	 M705.4,64.3v-1.5H730v1.5H705.4z M731,92.6h-22.1v-1.9H731V92.6z M731,85.2v1.7h-22.1v-1l2.1-0.7H731z M724.3,75.6h-7.2V74h10.7
	C726.7,74.6,725.5,75.1,724.3,75.6z M771.1,77.6c0,6.2-1.4,12-4.2,17.1l-0.2-0.3c-1-2.2-2.4-4.3-4.1-6.3l-0.2-0.3h7.3v-4.3H766V63.4
	h3.9v-4.3H766v-5.8h-4.7v5.8H754v-5.8h-4.7v5.8h-3.9v4.3h3.9v20.2h-4.4v4.3h8l-0.2,0.3c-1.8,2.4-4.1,4.6-7,6.5l-0.4,0.3l3.5,3.9
	l0.3-0.2c2.9-2,5.4-4.6,7.6-7.8l0.2-0.4L753,88h9.4l-3.8,2.4l0.3,0.4c1.6,1.9,3,3.9,4,5.9l0.2,0.4l3.8-2.1c-0.1,0.2-0.2,0.4-0.3,0.6
	l-0.2,0.3l4.2,3l0.2-0.4c2.5-4.7,4.2-10,4.8-15.8h8.1v8.8c0,2.3-0.8,2.3-1.1,2.3c-1.1,0-2.7-0.2-4.7-0.6l-0.6-0.1l1.2,5h0.3
	c1.9,0.3,3.5,0.4,4.7,0.4c1.7,0,2.9-0.5,3.8-1.5c0.8-1,1.3-2.4,1.3-4.3V54.8h-17.2v22.8H771.1z M761.2,83.6H754v-4h7.2V83.6z
	 M761.2,75.5H754v-4h7.2V75.5z M761.2,67.4H754v-4h7.2V67.4z M776,59.3h7.6v7.2H776V59.3z M776,70.9h7.6v7.2H776V70.9z M810,83.2
	c1.3-1.4,2.5-2.8,3.7-4c1.1-1.3,2.2-2.6,2.9-3.9c0.9-1.3,1.5-2.7,1.9-3.9c0.4-1.4,0.8-2.8,0.8-4.3c0-1.6-0.2-3.1-0.8-4.4
	c-0.5-1.3-1.3-2.4-2.3-3.3c-1-0.9-2.2-1.6-3.6-2.1c-1.4-0.4-2.9-0.7-4.7-0.7c-1.2,0-2.3,0.1-3.4,0.3s-2.1,0.5-3,1
	c-1,0.4-1.8,0.9-2.7,1.5c-0.9,0.5-1.6,1.2-2.3,1.8l-0.3,0.3l3.2,3.7l0.3-0.3c1.2-1,2.4-1.8,3.7-2.4c1.3-0.6,2.7-1,4.2-1
	c0.9,0,1.6,0.1,2.4,0.4c0.6,0.2,1.3,0.6,1.7,1.1c0.5,0.5,0.9,1.1,1.2,1.8c0.3,0.7,0.4,1.6,0.4,2.6c0,1.3-0.2,2.4-0.5,3.4
	c-0.3,1.1-0.9,2.1-1.6,3.2c-0.8,1.1-1.6,2.2-2.6,3.3c-1,1.2-2.2,2.4-3.5,3.8l-9.2,9.9v4.6h24.7v-5.2h-17.5L810,83.2z M847.6,61.8
	c-1.1-1.7-2.4-3-4-3.9c-1.6-0.9-3.5-1.4-5.6-1.4c-2.3,0-4.2,0.4-5.8,1.4c-1.6,1-2.9,2.2-3.9,3.9c-1,1.7-1.7,3.7-2.2,6.2
	c-0.4,2.4-0.6,5.2-0.6,8.2c0,3.1,0.2,5.9,0.8,8.2c0.5,2.4,1.3,4.6,2.3,6.2c1.1,1.7,2.4,3.1,3.9,3.9c1.6,1,3.5,1.4,5.6,1.4
	c2.3,0,4.2-0.4,5.8-1.4c1.6-1,2.9-2.2,4-3.9c1-1.7,1.7-3.8,2.2-6.2c0.4-2.4,0.6-5.2,0.6-8.2c0-3.1-0.2-5.9-0.8-8.3
	C849.5,65.6,848.7,63.4,847.6,61.8z M844.6,82.9c-0.2,1.9-0.6,3.4-1.3,4.7c-0.5,1.2-1.3,2.1-2.2,2.7c-0.9,0.5-1.9,0.9-3.1,0.9
	c-1.2,0-2.3-0.3-3.1-0.9c-0.9-0.6-1.5-1.5-2.1-2.7c-0.5-1.3-1-2.8-1.2-4.7c-0.2-1.9-0.4-4.2-0.4-6.7c0-2.6,0.1-4.8,0.4-6.7
	c0.2-1.9,0.6-3.4,1.2-4.7c0.5-1.2,1.2-2.1,2.1-2.7c0.9-0.5,1.9-0.9,3.1-0.9c1.2,0,2.3,0.3,3.1,0.9c0.9,0.5,1.6,1.5,2.2,2.7
	c0.5,1.2,1,2.8,1.3,4.7c0.2,1.9,0.4,4.2,0.4,6.7C845,78.8,844.9,81.1,844.6,82.9z M868.8,83.2c1.3-1.4,2.5-2.8,3.7-4
	c1.1-1.3,2.2-2.6,2.9-3.9c0.9-1.3,1.5-2.7,1.9-3.9c0.4-1.4,0.8-2.8,0.8-4.3c0-1.6-0.2-3.1-0.8-4.4c-0.5-1.3-1.3-2.4-2.3-3.3
	c-1-0.9-2.2-1.6-3.6-2.1c-1.4-0.4-2.9-0.7-4.7-0.7c-1.2,0-2.3,0.1-3.4,0.3s-2.1,0.5-3,1c-1,0.4-1.8,0.9-2.7,1.5
	c-0.9,0.5-1.6,1.2-2.3,1.8l-0.3,0.3l3.2,3.7l0.3-0.3c1.2-1,2.4-1.8,3.7-2.4s2.7-1,4.2-1c0.9,0,1.6,0.1,2.4,0.4
	c0.6,0.2,1.3,0.6,1.7,1.1c0.5,0.5,0.9,1.1,1.2,1.8s0.4,1.6,0.4,2.6c0,1.3-0.2,2.4-0.5,3.4c-0.3,1.1-0.9,2.1-1.6,3.2
	c-0.8,1.1-1.6,2.2-2.6,3.3c-1,1.2-2.2,2.4-3.5,3.8l-9.2,9.9v4.6h24.7v-5.2H862L868.8,83.2z M896.7,57.1l-10.5,8.1l3,3.8l4.2-3.4
	c0.3-0.3,0.6-0.5,1-0.9l0.8-0.6c0.2-0.2,0.4-0.4,0.6-0.6l-0.1,3.2c0,0.9,0,1.7,0,2.6s0,1.6,0,2.3v23.9h5.5V57.1H896.7z"/>
<rect x="655.5" y="77.4" class="st6" width="29.6" height="3.1"/>
<linearGradient id="SVGID_6_" gradientUnits="userSpaceOnUse" x1="30.6389" y1="-528.9962" x2="90.6802" y2="-563.661" gradientTransform="matrix(1 0 0 -1 0 -472)">
	<stop  offset="0" style="stop-color:#003FFF"/>
	<stop  offset="0.6" style="stop-color:#00ACFF"/>
	<stop  offset="1" style="stop-color:#00CAF2"/>
</linearGradient>
<path class="st7" d="M60.6,101.6c-15,0-27.2-12.2-27.2-27.5s11.4-27,27.2-27c15.9,0,30.1,9.9,30.1,9.9c-6-10.4-17.2-17.3-30-17.3
	C41.5,39.7,26,55.2,26,74.3S41.5,109,60.6,109c12.8,0,24-6.9,30-17.2l-14.4-8C76.2,83.7,75.6,101.6,60.6,101.6z"/>
<linearGradient id="SVGID_7_" gradientUnits="userSpaceOnUse" x1="33.4" y1="694.3497" x2="90.7" y2="694.3497" gradientTransform="matrix(1 0 0 1 0 -620)">
	<stop  offset="0" style="stop-color:#00A9FF"/>
	<stop  offset="0.6" style="stop-color:#0066FF"/>
	<stop  offset="1" style="stop-color:#003FFF"/>
</linearGradient>
<path class="st8" d="M33.4,74c0,15.8,12.2,27.6,27.2,27.6s15.6-17.8,15.6-17.8c-3.2,5.6-9.2,9.1-16.1,9.1
	c-10.3,0-18.6-8.3-18.6-18.6s8.3-18.6,18.6-18.6c6.9,0,12.9,3.8,16.2,9.3l14.4-8c0,0-14.2-9.9-30.1-9.9C44.8,47,33.4,58.7,33.4,74z"
	/>
</svg>
